<svg width="24" height="24" viewBox="0 0 24 24" fill="none" xmlns="http://www.w3.org/2000/svg">
<path d="M9.14453 22.5078C9.69682 22.5078 10.1445 22.0601 10.1445 21.5078C10.1445 20.9555 9.69682 20.5078 9.14453 20.5078C8.59225 20.5078 8.14453 20.9555 8.14453 21.5078C8.14453 22.0601 8.59225 22.5078 9.14453 22.5078Z" stroke="black" stroke-width="1.3" stroke-linecap="round" stroke-linejoin="round"/>
<path d="M20.1445 22.5078C20.6968 22.5078 21.1445 22.0601 21.1445 21.5078C21.1445 20.9555 20.6968 20.5078 20.1445 20.5078C19.5922 20.5078 19.1445 20.9555 19.1445 21.5078C19.1445 22.0601 19.5922 22.5078 20.1445 22.5078Z" stroke="black" stroke-width="1.3" stroke-linecap="round" stroke-linejoin="round"/>
<path d="M1.14453 1.50781H5.14453L7.82453 14.8978C7.91598 15.3582 8.16644 15.7718 8.53208 16.0661C8.89771 16.3604 9.35523 16.5168 9.82453 16.5078H19.5445C20.0138 16.5168 20.4713 16.3604 20.837 16.0661C21.2026 15.7718 21.4531 15.3582 21.5445 14.8978L23.1445 6.50781H6.14453" stroke="black" stroke-width="1.3" stroke-linecap="round" stroke-linejoin="round"/>
</svg>
