<svg width="23" height="21" viewBox="0 0 23 21" fill="none" xmlns="http://www.w3.org/2000/svg">
<path d="M20.3401 3.11964C19.8294 2.60864 19.2229 2.20328 18.5555 1.92672C17.888 1.65016 17.1726 1.50781 16.4501 1.50781C15.7276 1.50781 15.0122 1.65016 14.3448 1.92672C13.6773 2.20328 13.0709 2.60864 12.5601 3.11964L11.5001 4.17964L10.4401 3.11964C9.40843 2.08795 8.00915 1.50835 6.55012 1.50835C5.09109 1.50835 3.69181 2.08795 2.66012 3.11964C1.62843 4.15133 1.04883 5.5506 1.04883 7.00964C1.04883 8.46867 1.62843 9.86795 2.66012 10.8996L3.72012 11.9596L11.5001 19.7396L19.2801 11.9596L20.3401 10.8996C20.8511 10.3889 21.2565 9.78245 21.533 9.11499C21.8096 8.44753 21.9519 7.73213 21.9519 7.00964C21.9519 6.28715 21.8096 5.57174 21.533 4.90428C21.2565 4.23682 20.8511 3.63039 20.3401 3.11964Z" stroke="black" stroke-width="1.3" stroke-linecap="round" stroke-linejoin="round"/>
</svg>
