<svg width="20" height="31" viewBox="0 0 20 31" fill="none" xmlns="http://www.w3.org/2000/svg">
<g clip-path="url(#clip0_19_601)">
<path d="M10.2377 0.636719C10.3369 0.665003 10.4352 0.703696 10.5324 0.724061C11.3042 0.895804 11.8882 1.34609 12.2557 2.03171C12.5633 2.61007 12.8207 3.21761 13.0454 3.83308C14.8713 8.86883 16.6842 13.9098 18.4982 18.9496C18.6586 19.3936 18.6336 19.4524 18.1919 19.6268C17.2952 19.9792 16.3998 20.334 15.5042 20.6863C15.1637 20.8211 15.0657 20.779 14.9432 20.4312C14.5507 19.3463 14.16 18.2635 13.7849 17.1751C13.713 16.9645 13.6214 16.8796 13.3857 16.8819C10.9861 16.8912 8.5841 16.8912 6.18432 16.8819C5.96918 16.8819 5.87111 16.9441 5.80029 17.1503C5.41403 18.2468 5.01481 19.3383 4.62006 20.4322C4.49763 20.779 4.40403 20.8202 4.05932 20.684C3.15365 20.3303 2.25289 19.9746 1.34744 19.618C0.948222 19.4621 0.908903 19.3759 1.053 18.9718C2.41217 15.2041 3.77113 11.4355 5.12919 7.66596C5.67384 6.15896 6.21447 4.64971 6.76114 3.14385C6.98141 2.54784 7.25084 1.97989 7.68424 1.50607C8.09105 1.06121 8.59259 0.791265 9.18818 0.696003C9.23509 0.688988 9.27866 0.656405 9.32669 0.636945C9.62895 0.636719 9.93032 0.636719 10.2377 0.636719ZM12.4391 13.3724C11.5556 10.6915 10.6847 8.04972 9.8146 5.40547C9.79159 5.40931 9.76679 5.41022 9.74579 5.41248C8.87854 8.05538 8.00705 10.698 7.12774 13.3724C8.91563 13.3724 10.6524 13.3724 12.4391 13.3724Z" fill="#AAAAAA"/>
<path d="M9.78041 30.634C6.76538 30.634 3.74588 30.634 0.727939 30.634C0.336315 30.634 0.285156 30.5766 0.285156 30.1801C0.285156 29.1481 0.285156 28.1183 0.285156 27.0874C0.285156 26.7337 0.357092 26.6534 0.704035 26.6534C6.75801 26.652 12.8098 26.652 18.8617 26.6534C19.2062 26.6534 19.2829 26.7349 19.2829 27.0874C19.286 28.1283 19.286 29.1689 19.2829 30.2098C19.2829 30.5634 19.2109 30.634 18.8593 30.634C15.8324 30.634 12.8064 30.634 9.78041 30.634Z" fill="#AAAAAA"/>
</g>
<defs>
<clipPath id="clip0_19_601">
<rect width="19" height="30" fill="white" transform="translate(0.285156 0.636719)"/>
</clipPath>
</defs>
</svg>
