<svg width="52" height="34" viewBox="0 0 52 34" fill="none" xmlns="http://www.w3.org/2000/svg">
<g clip-path="url(#clip0_19_592)">
<path fill-rule="evenodd" clip-rule="evenodd" d="M0.713867 16.6663C0.713867 7.80824 7.85122 0.636719 16.6763 0.636719C20.4021 0.636719 23.8178 1.92951 26.5238 4.06635L27.018 4.45661L26.5259 4.84949C23.0758 7.60405 20.8292 11.8656 20.8292 16.6663C20.8292 21.4694 23.0725 25.7688 26.5229 28.4808L27.0218 28.873L26.5238 29.2663C23.8178 31.4032 20.4021 32.696 16.6763 32.696C7.85122 32.696 0.713867 25.5245 0.713867 16.6663ZM16.6763 1.63672C8.40759 1.63672 1.71387 8.35643 1.71387 16.6663C1.71387 24.9763 8.40759 31.696 16.6763 31.696C19.9419 31.696 22.9532 30.6365 25.4064 28.8582C22.0055 25.9488 19.8292 21.5495 19.8292 16.6663C19.8292 11.7784 22.0138 7.41591 25.4099 4.47708C22.9561 2.69719 19.9434 1.63672 16.6763 1.63672Z" fill="#AAAAAA"/>
<path fill-rule="evenodd" clip-rule="evenodd" d="M27.0176 4.47672C30.4139 7.41555 32.5987 11.7782 32.5987 16.6663C32.5987 21.5525 30.4562 25.9127 27.0206 28.8575C29.474 30.6363 32.4856 31.696 35.7516 31.696C44.0203 31.696 50.714 24.9763 50.714 16.6663C50.714 8.40082 44.0194 1.63672 35.7466 1.63672C32.4795 1.63672 29.467 2.69718 27.0176 4.47672ZM25.9037 4.06664C28.6049 1.92947 32.0209 0.636719 35.7466 0.636719C44.5775 0.636719 51.714 7.85432 51.714 16.6663C51.714 25.5245 44.5766 32.696 35.7516 32.696C32.0258 32.696 28.6101 31.4032 25.9041 29.2663L25.4072 28.874L25.9041 28.4816C29.3952 25.7242 31.5987 21.4696 31.5987 16.6663C31.5987 11.8656 29.3521 7.60405 25.902 4.84949L25.4104 4.45698L25.9037 4.06664Z" fill="#AAAAAA"/>
</g>
<defs>
<clipPath id="clip0_19_592">
<rect width="51" height="33" fill="white" transform="translate(0.713867 0.136719)"/>
</clipPath>
</defs>
</svg>
