<svg width="62" height="18" viewBox="0 0 62 18" fill="none" xmlns="http://www.w3.org/2000/svg">
<g clip-path="url(#clip0_19_604)">
<path fill-rule="evenodd" clip-rule="evenodd" d="M17.0089 0.136719V0.144143C17.0013 0.144143 14.6262 0.136719 13.9928 2.37122C13.4122 4.42013 11.776 10.0769 11.7308 10.2328H11.2783C11.2783 10.2328 9.60442 4.44982 9.01628 2.36379C8.38291 0.129296 6.00021 0.136719 6.00021 0.136719H0.571289V17.1367H6.00021V7.04065H6.22642H6.45262L9.6195 17.1367H13.3896L16.5565 7.04807H17.0089V17.1367H22.4378V0.136719H17.0089Z" fill="#AAAAAA"/>
<path fill-rule="evenodd" clip-rule="evenodd" d="M36.8397 0.136719C36.8397 0.136719 35.2487 0.277767 34.5023 1.91838L30.6568 10.2328H30.2044V0.136719H24.7754V17.1367H29.9028C29.9028 17.1367 31.5691 16.9882 32.3156 15.355L36.0857 7.04065H36.5381V17.1367H41.967V0.136719H36.8397Z" fill="#AAAAAA"/>
<path fill-rule="evenodd" clip-rule="evenodd" d="M44.3799 7.85547V17.135H49.8088V11.7158H55.6902C58.2538 11.7158 60.4254 10.1048 61.2322 7.85547H44.3799Z" fill="#AAAAAA"/>
<path fill-rule="evenodd" clip-rule="evenodd" d="M55.6901 0.136719H43.6182C44.2215 3.3734 46.6871 5.97165 49.8766 6.81794C50.6004 7.01096 51.362 7.11489 52.1462 7.11489H61.4508C61.5337 6.72886 61.5714 6.33541 61.5714 5.92711C61.5714 2.72755 58.9399 0.136719 55.6901 0.136719Z" fill="#AAAAAA"/>
</g>
<defs>
<clipPath id="clip0_19_604">
<rect width="61" height="17" fill="white" transform="translate(0.571289 0.136719)"/>
</clipPath>
</defs>
</svg>
