<svg width="64" height="34" viewBox="0 0 64 34" fill="none" xmlns="http://www.w3.org/2000/svg">
<g clip-path="url(#clip0_19_595)">
<mask id="mask0_19_595" style="mask-type:luminance" maskUnits="userSpaceOnUse" x="0" y="0" width="64" height="33">
<path fill-rule="evenodd" clip-rule="evenodd" d="M14.4191 1.85413C15.7308 1.65958 17.0618 1.69849 18.3735 1.69849C27.8834 1.69849 37.4126 1.69849 46.9225 1.69849C48.35 1.69849 49.7775 1.79576 51.1663 2.14596C55.1786 3.15762 58.6701 6.01753 60.5026 9.75292C61.8336 12.3988 62.2773 15.4727 61.8336 18.391C61.3707 21.6595 59.7117 24.7139 57.3005 26.9124C54.6964 29.3053 51.2049 30.6867 47.6749 30.6867C37.3934 30.7061 27.1119 30.6867 16.8303 30.6867C15.075 30.7061 13.3003 30.4726 11.6414 29.8695C8.13061 28.6633 5.14068 25.998 3.50104 22.6517C2.15075 19.9474 1.6878 16.7568 2.20862 13.7412C2.8259 10.1226 4.87063 6.77628 7.7834 4.5973C9.71238 3.13817 12.0272 2.16541 14.4191 1.85413Z" stroke="#D0D0D0" stroke-width="3"/>
</mask>
<g mask="url(#mask0_19_595)">
<path fill-rule="evenodd" clip-rule="evenodd" d="M14.4191 1.85413C15.7308 1.65958 17.0618 1.69849 18.3735 1.69849C27.8834 1.69849 37.4126 1.69849 46.9225 1.69849C48.35 1.69849 49.7775 1.79576 51.1663 2.14596C55.1786 3.15762 58.6701 6.01753 60.5026 9.75292C61.8336 12.3988 62.2773 15.4727 61.8336 18.391C61.3707 21.6595 59.7117 24.7139 57.3005 26.9124C54.6964 29.3053 51.2049 30.6867 47.6749 30.6867C37.3934 30.7061 27.1119 30.6867 16.8303 30.6867C15.075 30.7061 13.3003 30.4726 11.6414 29.8695C8.13061 28.6633 5.14068 25.998 3.50104 22.6517C2.15075 19.9474 1.6878 16.7568 2.20862 13.7412C2.8259 10.1226 4.87063 6.77628 7.7834 4.5973C9.71238 3.13817 12.0272 2.16541 14.4191 1.85413Z" stroke="#AAAAAA" stroke-width="3"/>
</g>
<path fill-rule="evenodd" clip-rule="evenodd" d="M40.4989 17.6694C41.2898 17.4379 42.1385 17.5344 42.968 17.5151C43.2381 18.8845 41.5598 19.656 40.4603 19.1545C39.8623 18.8845 39.8623 17.8815 40.4989 17.6694ZM31.722 12.0953C32.8601 12.1339 34.0368 11.941 35.117 12.3461C36.0044 12.6739 36.1587 13.8119 35.8886 14.6027C35.6957 15.2585 35.0399 15.6249 34.4226 15.7406C33.5353 15.8757 32.6286 15.7792 31.722 15.8178C31.722 14.5641 31.722 13.3297 31.722 12.0953ZM45.5143 13.349C46.5173 15.8371 47.559 18.3252 48.6007 20.794C48.3885 21.2568 48.2341 21.8933 47.694 22.0669C47.2697 22.2212 46.8646 21.9705 46.4981 21.7776C46.5173 22.3177 46.5173 22.8577 46.4981 23.3978C47.1153 23.7256 47.8869 23.8028 48.5428 23.5521C49.2758 23.1856 49.623 22.3948 49.9124 21.6812C50.8961 18.9038 51.8799 16.1264 52.883 13.349C52.285 13.349 51.687 13.349 51.0698 13.349C50.4911 15.0077 50.0281 16.7243 49.3915 18.3444C48.7164 16.6857 48.0798 15.0077 47.4047 13.349C46.7681 13.349 46.1508 13.349 45.5143 13.349ZM38.8593 13.8698C38.8593 14.5834 38.8593 15.3163 38.84 16.03C39.573 14.9306 41.039 14.487 42.2736 14.8534C42.9294 15.0656 42.9294 15.8371 42.968 16.4157C41.9649 16.4157 40.9619 16.3771 39.9781 16.5507C39.2258 16.6664 38.4735 17.2065 38.3577 17.9973C38.1841 18.9231 38.3963 20.061 39.2836 20.5432C40.5568 21.2183 42.4279 20.8132 43.0452 19.4438C43.0452 19.8874 43.0452 20.3118 43.0452 20.7361C43.5853 20.7361 44.1254 20.7361 44.6655 20.7361C44.6462 18.9616 44.7041 17.1679 44.6269 15.3935C44.6077 14.3905 43.8168 13.5419 42.8523 13.3683C41.5213 13.0983 40.036 13.1176 38.8593 13.8698ZM22.3471 11.1502C20.2831 12.6932 18.2191 14.2169 16.1551 15.7599C15.1713 15.1234 14.1682 14.5062 13.2037 13.8698C13.2037 14.6413 13.2037 15.3935 13.2037 16.165C14.2068 16.7629 15.1713 17.3994 16.1551 18.0166C18.547 16.2614 20.9197 14.4677 23.2923 12.6932C23.003 12.1725 22.6944 11.6324 22.3471 11.1502ZM29.8702 10.3787C29.8702 13.8312 29.8895 17.2644 29.8702 20.7168C30.4682 20.7168 31.0854 20.7168 31.6834 20.7168C31.7027 19.656 31.7027 18.5759 31.7027 17.5151C33.3038 17.4958 35.0592 17.6501 36.4866 16.7436C37.9141 15.8371 38.1648 13.8505 37.6054 12.3653C37.1618 11.2467 35.9658 10.6873 34.847 10.533C33.2073 10.3016 31.5484 10.398 29.8702 10.3787ZM8.36202 15.7792C8.38131 11.7096 11.9885 8.04495 16.0779 8.08352C17.8912 8.04495 19.6466 8.75858 21.0933 9.81939C20.5725 10.2051 20.0709 10.5909 19.5694 10.9574C17.8526 9.78082 15.5378 9.56866 13.6667 10.4752C11.3905 11.5167 9.94379 14.0434 10.2138 16.5314C10.3874 18.8073 12.0078 20.929 14.1682 21.6812C15.7886 22.2984 17.679 22.1055 19.1836 21.2183C21.0547 20.1189 22.2121 17.978 22.1735 15.8178C22.7136 15.3935 23.2923 14.9691 23.8517 14.5448C24.0832 16.1843 23.9482 17.9008 23.1766 19.3667C22.0578 21.7776 19.6466 23.5328 17.0038 23.8221C15.4799 23.9764 13.8789 23.7256 12.5479 22.9349C9.94379 21.604 8.24628 18.6916 8.36202 15.7792Z" fill="#AAAAAA"/>
</g>
<defs>
<clipPath id="clip0_19_595">
<rect width="64" height="33" fill="white" transform="translate(0 0.136719)"/>
</clipPath>
</defs>
</svg>
