<svg width="30" height="31" viewBox="0 0 30 31" fill="none" xmlns="http://www.w3.org/2000/svg">
<g clip-path="url(#clip0_19_620)">
<path d="M22.9055 19.1465C23.3968 19.3365 23.5859 20.0774 23.6234 20.4005C23.6993 20.9898 23.5295 21.2178 23.3405 21.2178C23.1514 21.2178 22.8867 20.9901 22.6038 20.534C22.32 20.0772 22.2066 19.5646 22.3581 19.2983C22.4522 19.1269 22.6595 19.0514 22.9055 19.1465ZM20.0345 21.2941C20.3369 21.2941 20.6768 21.4269 20.9791 21.6928C21.5644 22.1871 21.7348 22.7573 21.4324 23.1752C21.2622 23.3843 20.9791 23.5174 20.658 23.5174C20.3369 23.5174 19.9967 23.4033 19.7704 23.1941C19.2414 22.7383 19.0905 21.9775 19.4298 21.56C19.5625 21.3885 19.7704 21.2941 20.0345 21.2941ZM13.4238 26.7859C6.24534 26.7861 0.427734 20.9327 0.427734 13.7114C0.427734 6.48972 6.24579 0.636719 13.4231 0.636719C20.6007 0.636719 26.419 6.49017 26.419 13.7112C26.419 16.1624 25.7391 18.4625 24.5873 20.4197C24.5491 20.4766 24.4546 20.4576 24.4357 20.3815C23.9824 17.1701 22.0371 15.4023 19.2035 14.8705C18.9576 14.8321 18.9199 14.6803 19.2412 14.6426C20.1101 14.5664 21.3376 14.5852 21.98 14.6993C22.0182 14.365 22.0371 14.0287 22.0368 13.6922C22.0368 8.92197 18.1832 5.04489 13.4418 5.04489C8.70104 5.04489 4.84741 8.92197 4.84741 13.6922C4.84741 18.4625 8.70104 22.3396 13.4424 22.3396H13.8387C13.7041 21.568 13.647 20.7848 13.6683 20.0018C13.6879 19.4695 13.801 19.3932 14.0278 19.8116C15.2178 21.883 16.918 23.7453 20.2422 24.4867C22.9621 25.0951 25.6821 25.7978 28.6098 29.5416C28.8743 29.8647 28.478 30.2067 28.1755 29.9408C25.1913 27.2797 22.4713 26.4057 19.9965 26.4057C17.2197 26.4252 15.3316 26.7859 13.4238 26.7859Z" fill="#AAAAAA"/>
</g>
<defs>
<clipPath id="clip0_19_620">
<rect width="29" height="30" fill="white" transform="translate(0.427734 0.636719)"/>
</clipPath>
</defs>
</svg>
