<svg width="48" height="49" viewBox="0 0 48 49" fill="none" xmlns="http://www.w3.org/2000/svg">
<path fill-rule="evenodd" clip-rule="evenodd" d="M13.0374 22.8046C19.2389 20.1027 23.3742 18.3214 25.4433 17.4608C31.351 15.0036 32.5786 14.5767 33.3787 14.5627C33.5546 14.5596 33.9481 14.6032 34.203 14.81C34.4182 14.9846 34.4774 15.2205 34.5058 15.3861C34.5341 15.5516 34.5694 15.9288 34.5413 16.2235C34.2212 19.5873 32.8359 27.7502 32.1312 31.5176C31.833 33.1118 31.2458 33.6463 30.6774 33.6986C29.442 33.8123 28.504 32.8822 27.3075 32.0979C25.4352 30.8706 24.3774 30.1066 22.5601 28.9089C20.4598 27.5249 21.8213 26.7642 23.0183 25.5209C23.3315 25.1956 28.7745 20.2448 28.8799 19.7956C28.893 19.7395 28.9053 19.5301 28.7809 19.4195C28.6565 19.309 28.4729 19.3468 28.3404 19.3769C28.1527 19.4195 25.1616 21.3964 19.3674 25.3077C18.5184 25.8907 17.7494 26.1747 17.0604 26.1598C16.3009 26.1434 14.8398 25.7304 13.7537 25.3773C12.4214 24.9443 11.3626 24.7153 11.4548 23.9798C11.5028 23.5968 12.0304 23.205 13.0374 22.8046Z" fill="black"/>
<rect x="0.25" y="0.386719" width="47.5" height="47.5" rx="23.75" stroke="black" stroke-width="0.5"/>
</svg>
