<svg width="91" height="13" viewBox="0 0 91 13" fill="none" xmlns="http://www.w3.org/2000/svg">
<g clip-path="url(#clip0_19_612)">
<path d="M5.0593 3.9633H0.142578V0.933594H13.6336V3.9633H8.71686V12.2801H5.11926V3.9633H5.0593Z" fill="#AAAAAA"/>
<path d="M14.8926 12.2793V0.992188H18.4902V12.2793H14.8926Z" fill="#AAAAAA"/>
<path d="M30.183 7.17122V0.933594H33.4808V12.2207H30.4228L24.247 5.9831V12.2207H20.9492V0.933594H24.187L30.183 7.17122Z" fill="#AAAAAA"/>
<path d="M39.4767 12.2793H35.999V0.992188H39.4767V5.26942H40.436L44.6332 0.992188H49.0103L43.434 6.39813L49.1902 12.2793H44.5733L40.436 8.00209H39.4767V12.2793Z" fill="#AAAAAA"/>
<path d="M63.9398 6.63672C63.9398 10.0229 61.1217 12.6367 56.5048 12.6367C51.8879 12.6367 49.0098 10.0229 49.0098 6.63672C49.0098 3.25058 51.8279 0.636719 56.5048 0.636719C61.1817 0.636719 63.9398 3.25058 63.9398 6.63672ZM60.2823 6.63672C60.2823 4.79513 58.7833 3.4288 56.4448 3.4288C54.1064 3.4288 52.6074 4.79513 52.6074 6.63672C52.6074 8.4783 54.1064 9.84464 56.4448 9.84464C58.7833 9.84464 60.2823 8.4783 60.2823 6.63672Z" fill="#AAAAAA"/>
<path d="M69.0968 3.78508V5.80488H76.7717V8.18112H69.0968V12.2207H65.6191V0.933594H77.0715V3.78508H69.0968Z" fill="#AAAAAA"/>
<path d="M82.1681 3.78508V5.80488H89.843V8.18112H82.1681V12.2207H78.6904V0.933594H90.1428V3.78508H82.1681Z" fill="#AAAAAA"/>
</g>
<defs>
<clipPath id="clip0_19_612">
<rect width="90" height="12.5" fill="white" transform="translate(0.142578 0.386719)"/>
</clipPath>
</defs>
</svg>
