<svg width="60" height="20" viewBox="0 0 60 20" fill="none" xmlns="http://www.w3.org/2000/svg">
<g clip-path="url(#clip0_19_590)">
<path d="M39.0802 0.136719C34.82 0.136719 31.0128 2.29485 31.0128 6.28216C31.0128 10.8548 37.7649 11.1707 37.7649 13.4679C37.7649 14.4351 36.6308 15.301 34.6937 15.301C31.9445 15.301 29.8898 14.0911 29.8898 14.0911L29.0106 18.1148C29.0106 18.1148 31.3776 19.1367 34.5202 19.1367C39.178 19.1367 42.8431 16.8726 42.8431 12.8171C42.8431 7.98526 36.0628 7.67881 36.0628 5.54663C36.0628 4.78893 36.9939 3.95872 38.9254 3.95872C41.1048 3.95872 42.8829 4.8386 42.8829 4.8386L43.7434 0.952445C43.7434 0.952445 41.8086 0.136719 39.0802 0.136719ZM0.103157 0.430014L0 1.0166C0 1.0166 1.79229 1.33719 3.40653 1.97669C5.48501 2.71 5.63307 3.1369 5.98312 4.46282L9.79759 18.8342H14.9109L22.7884 0.430014H17.6868L12.625 12.9431L10.5595 2.33643C10.3701 1.1225 9.41064 0.430014 8.23617 0.430014H0.103157ZM24.8398 0.430014L20.8378 18.8342H25.7026L29.6905 0.430014H24.8398ZM51.9725 0.430014C50.7994 0.430014 50.1779 1.04383 49.7218 2.11646L42.5946 18.8342H47.6962L48.6832 16.0479H54.8984L55.4986 18.8342H60L56.073 0.430014H51.9725ZM52.636 5.40228L54.1482 12.3084H50.0969L52.636 5.40228Z" fill="#AAAAAA"/>
</g>
<defs>
<clipPath id="clip0_19_590">
<rect width="60" height="19" fill="white" transform="translate(0 0.136719)"/>
</clipPath>
</defs>
</svg>
