<svg width="48" height="49" viewBox="0 0 48 49" fill="none" xmlns="http://www.w3.org/2000/svg">
<path d="M12 36.1367L13.6963 29.977C12.6476 28.169 12.0974 26.1215 12.1032 24.0284C12.1032 17.4694 17.467 12.1367 24.0516 12.1367C27.2493 12.1367 30.2521 13.3744 32.5043 15.6215C34.7622 17.8687 36.0057 20.8573 36 24.0341C36 30.593 30.6361 35.9257 24.0458 35.9257H24.0401C22.0401 35.9257 20.0745 35.4238 18.3266 34.477L12 36.1367ZM18.6304 32.3268L18.9914 32.5436C20.5158 33.4447 22.2636 33.9181 24.0458 33.9238H24.0516C29.5243 33.9238 33.9828 29.4922 33.9828 24.0398C33.9828 21.3991 32.9513 18.9181 31.0773 17.0474C29.2034 15.1766 26.7049 14.15 24.0516 14.15C18.5788 14.1443 14.1203 18.5759 14.1203 24.0284C14.1203 25.8934 14.6418 27.7128 15.639 29.2869L15.8739 29.6633L14.8711 33.3078L18.6304 32.3268Z" fill="black"/>
<path fill-rule="evenodd" clip-rule="evenodd" d="M21.0655 19.0542C20.842 18.558 20.6071 18.5466 20.395 18.5409C20.2231 18.5352 20.0225 18.5352 19.822 18.5352C19.6214 18.5352 19.3005 18.6093 19.0254 18.9059C18.7503 19.2025 17.9824 19.9211 17.9824 21.3869C17.9824 22.8469 19.0541 24.2614 19.2031 24.461C19.352 24.6606 21.2718 27.7576 24.3033 28.9496C26.8248 29.942 27.3406 29.7424 27.885 29.6911C28.4294 29.6397 29.65 28.9724 29.9022 28.2766C30.1486 27.5808 30.1486 26.9876 30.0741 26.8622C29.9996 26.7367 29.799 26.6625 29.501 26.5142C29.203 26.366 27.736 25.6473 27.4609 25.5447C27.1859 25.4477 26.9853 25.3964 26.7904 25.693C26.5899 25.9895 26.0168 26.6568 25.8449 26.8565C25.673 27.0561 25.4953 27.0789 25.1973 26.9306C24.8993 26.7823 23.9366 26.4686 22.7962 25.4534C21.9079 24.6663 21.3062 23.6911 21.1343 23.3945C20.9624 23.0979 21.1171 22.9382 21.2661 22.7899C21.3979 22.6587 21.5641 22.442 21.7131 22.2709C21.8621 22.0998 21.9137 21.9743 22.0111 21.7747C22.1085 21.5751 22.0626 21.404 21.9881 21.2557C21.9137 21.1131 21.3291 19.6416 21.0655 19.0542Z" fill="black"/>
<rect x="0.25" y="0.386719" width="47.5" height="47.5" rx="23.75" stroke="black" stroke-width="0.5"/>
</svg>
