<svg width="42" height="30" viewBox="0 0 42 30" fill="none" xmlns="http://www.w3.org/2000/svg">
<g clip-path="url(#clip0_19_609)">
<path d="M27.3002 0.136719C19.1925 0.136719 12.7432 6.65254 12.7432 14.6367C12.7432 22.7126 19.2847 29.1367 27.3002 29.1367C35.3158 29.1367 41.8573 22.6209 41.8573 14.6367C41.8573 6.65254 35.3158 0.136719 27.3002 0.136719ZM27.3002 20.0513C24.352 20.0513 21.8644 17.5734 21.8644 14.6367C21.8644 11.7 24.352 9.22215 27.3002 9.22215C30.2485 9.22215 32.7361 11.7 32.7361 14.6367C32.6441 17.5734 30.2485 20.0513 27.3002 20.0513Z" fill="#AAAAAA"/>
<path d="M12.6505 4.35938V25.4669H7.49103L0.857422 4.35938H12.6505Z" fill="#AAAAAA"/>
</g>
<defs>
<clipPath id="clip0_19_609">
<rect width="41" height="29" fill="white" transform="translate(0.857422 0.136719)"/>
</clipPath>
</defs>
</svg>
