<svg width="40" height="40" viewBox="0 0 40 40" fill="none" xmlns="http://www.w3.org/2000/svg">
<path d="M12.6035 18.649C12.6035 20.0674 13.7364 21.2279 15.1147 21.2279H17.9469C19.1553 21.2279 20.1371 20.2148 20.1371 18.9806C20.1371 17.6359 19.5329 17.1569 18.6455 16.8438L14.114 15.2964C13.2077 14.9833 12.6035 14.5043 12.6035 13.1596C12.6035 11.9254 13.5853 10.9123 14.7937 10.9123H17.6259C19.0232 10.9307 20.156 12.0728 20.156 13.4912M16.3798 21.32V22.6831M16.3798 9.45703V10.8939" stroke="black" stroke-width="2" stroke-linecap="round" stroke-linejoin="round"/>
<path d="M22.007 34.2684C23.7064 36.6078 26.4819 38.1367 29.654 38.1367C34.8086 38.1367 39.0002 34.0473 39.0002 29.0184C39.0002 25.9606 37.4519 23.2527 35.0918 21.5949M16.3615 30.7684C20.3626 30.7684 24.1999 29.2178 27.0291 26.4576C29.8583 23.6974 31.4477 19.9537 31.4477 16.0502C31.4477 12.1467 29.8583 8.40309 27.0291 5.64289C24.1999 2.88269 20.3626 1.33203 16.3615 1.33203C12.3604 1.33203 8.52322 2.88269 5.69402 5.64289C2.86482 8.40309 1.27539 12.1467 1.27539 16.0502C1.27539 19.9537 2.86482 23.6974 5.69402 26.4576C8.52322 29.2178 12.3604 30.7684 16.3615 30.7684Z" stroke="black" stroke-width="2" stroke-linecap="round" stroke-linejoin="round"/>
</svg>
