<svg width="38" height="40" viewBox="0 0 38 40" fill="none" xmlns="http://www.w3.org/2000/svg">
<path d="M2.79492 11.4844L18.9552 20.8365L35.0056 11.5393M18.9552 37.4177V20.8182" stroke="black" stroke-width="2" stroke-linecap="round" stroke-linejoin="round"/>
<path d="M15.1665 2.40972L5.39353 7.84528C3.17904 9.07149 1.36719 12.1461 1.36719 14.6718V25.0121C1.36719 27.5377 3.17904 30.6124 5.39353 31.8386L15.1665 37.2742C17.2529 38.4272 20.6753 38.4272 22.7617 37.2742L32.5347 31.8386C34.7492 30.6124 36.5611 27.5377 36.5611 25.0121V14.6718C36.5611 12.1461 34.7492 9.07149 32.5347 7.84528L22.7617 2.40972C20.657 1.23843 17.2529 1.23843 15.1665 2.40972Z" stroke="black" stroke-width="2" stroke-linecap="round" stroke-linejoin="round"/>
<path d="M28.1055 22.1026V15.4042L10.7373 5.375" stroke="black" stroke-width="2" stroke-linecap="round" stroke-linejoin="round"/>
</svg>
