<svg width="18" height="18" viewBox="0 0 18 18" fill="none" xmlns="http://www.w3.org/2000/svg">
<path fill-rule="evenodd" clip-rule="evenodd" d="M9.76465 0.96875C9.76465 0.554536 9.42886 0.21875 9.01465 0.21875C8.60044 0.21875 8.26465 0.554536 8.26465 0.96875V8.12891H1.10547C0.691255 8.12891 0.355469 8.46469 0.355469 8.87891C0.355469 9.29312 0.691255 9.62891 1.10547 9.62891H8.26465V16.7871C8.26465 17.2013 8.60043 17.5371 9.01465 17.5371C9.42886 17.5371 9.76465 17.2013 9.76465 16.7871V9.62891H16.9238C17.338 9.62891 17.6738 9.29312 17.6738 8.87891C17.6738 8.46469 17.338 8.12891 16.9238 8.12891H9.76465V0.96875Z" fill="white"/>
</svg>
